<svg xmlns="http://www.w3.org/2000/svg"
     viewBox="0 0 304.16 413.00"
     width="304.16" height="413.00">
  <!-- Nikon Isolated Glyph: H (Baseline Aligned at Y=403.00px, Source: D2H.png) -->
  <g id="glyph-H-aligned" fill="#231f20" fill-rule="evenodd">
    <path d="M 0.41 86.68 L 141.94 87.09 L 141.94 151.97 L 120.85 152.78 L 121.26 208.34 L 182.49 207.94 L 182.49 152.78 L 161.41 151.97 L 161.81 86.68 L 304.16 87.09 L 304.16 151.16 L 302.94 152.38 L 276.58 152.78 L 276.58 337.71 L 303.35 338.52 L 302.94 403.00 L 162.22 402.60 L 162.22 338.52 L 182.49 337.71 L 182.09 269.99 L 122.07 269.99 L 120.85 271.20 L 120.85 337.71 L 141.94 338.52 L 141.53 403.00 L 0.00 402.60 L 0.00 338.52 L 23.93 338.12 L 24.74 338.93 L 27.98 338.93 L 29.20 337.71 L 29.20 152.78 L 0.00 151.97 L 0.41 86.68 Z M 21.49 108.58 L 21.09 129.26 L 22.30 130.48 L 51.10 130.88 L 51.10 359.61 L 22.30 360.02 L 21.90 380.70 L 120.04 380.70 L 120.04 360.42 L 99.76 359.61 L 100.17 248.09 L 203.99 248.09 L 204.39 359.61 L 183.31 360.42 L 183.31 380.70 L 281.04 381.11 L 282.26 379.89 L 282.26 361.23 L 281.04 360.02 L 254.68 359.61 L 254.68 130.88 L 281.85 130.48 L 282.26 108.98 L 183.31 108.98 L 183.31 130.07 L 204.39 130.88 L 203.99 230.24 L 100.17 230.24 L 99.76 130.88 L 119.64 130.48 L 120.85 129.26 L 120.85 108.98 L 21.49 108.58 Z" />
  </g>
</svg>