<svg xmlns="http://www.w3.org/2000/svg"
     viewBox="0 0 252.33 413.00"
     width="252.33" height="413.00">
  <!-- Nikon Isolated Glyph: 3 (Baseline Aligned at Y=403.00px, Source: D3100.png) -->
  <g id="glyph-3-aligned" fill="#231f20" fill-rule="evenodd">
    <path d="M 109.13 8.00 L 112.86 8.53 L 112.86 71.35 L 111.26 72.95 L 109.13 72.95 L 105.94 75.08 L 103.81 75.08 L 101.68 76.14 L 99.55 78.27 L 95.29 80.40 L 88.37 87.32 L 86.24 91.58 L 84.11 93.71 L 78.79 104.35 L 77.72 109.68 L 76.66 110.74 L 76.66 113.94 L 75.59 115.00 L 75.59 119.26 L 74.53 120.32 L 74.53 127.78 L 73.46 128.84 L 73.46 138.42 L 72.93 138.96 L 9.05 138.96 L 8.52 132.04 L 9.58 130.97 L 9.58 121.39 L 10.65 120.32 L 10.65 113.94 L 11.71 112.87 L 11.71 107.55 L 12.78 106.48 L 12.78 103.29 L 13.84 102.23 L 13.84 99.03 L 14.91 97.97 L 14.91 94.77 L 15.97 93.71 L 15.97 90.51 L 19.16 84.13 L 20.23 78.80 L 24.49 71.35 L 24.49 69.22 L 25.55 67.09 L 27.68 64.96 L 29.81 59.64 L 35.13 53.25 L 37.26 48.99 L 47.38 37.81 L 49.51 35.68 L 50.57 35.68 L 56.96 29.29 L 58.03 29.29 L 66.54 22.91 L 69.74 21.84 L 71.87 19.71 L 78.25 16.52 L 80.38 16.52 L 83.58 14.39 L 88.90 13.32 L 89.97 12.26 L 93.16 12.26 L 94.23 11.19 L 97.42 11.19 L 98.48 10.13 L 101.68 10.13 L 102.74 9.06 L 108.07 9.06 L 109.13 8.00 Z M 138.94 8.00 L 141.07 8.00 L 142.14 9.06 L 147.46 9.06 L 148.52 10.13 L 152.78 10.13 L 153.85 11.19 L 161.30 12.26 L 162.37 13.32 L 167.69 14.39 L 168.75 15.45 L 170.88 15.45 L 174.08 17.58 L 176.21 17.58 L 184.72 21.84 L 186.85 23.97 L 190.05 25.04 L 195.37 29.29 L 199.63 31.42 L 210.28 41.01 L 218.26 50.06 L 218.26 51.12 L 221.46 54.31 L 223.58 58.57 L 225.71 60.70 L 226.78 63.90 L 228.91 66.03 L 232.10 72.41 L 232.10 74.54 L 234.23 78.80 L 235.30 84.13 L 236.36 85.19 L 236.36 88.38 L 237.43 89.45 L 237.43 93.71 L 238.49 94.77 L 238.49 102.23 L 239.56 103.29 L 239.56 122.45 L 238.49 123.52 L 238.49 132.04 L 237.43 133.10 L 237.43 137.36 L 236.36 138.42 L 236.36 141.62 L 235.30 142.68 L 235.30 144.81 L 233.17 149.07 L 233.17 151.20 L 226.78 163.98 L 224.65 166.11 L 222.52 170.37 L 212.41 180.48 L 211.34 180.48 L 206.02 184.74 L 195.37 190.06 L 193.24 190.06 L 191.64 191.66 L 194.31 193.26 L 196.44 193.26 L 200.69 195.39 L 202.82 195.39 L 213.47 200.71 L 215.60 202.84 L 216.66 202.84 L 219.86 206.03 L 220.92 206.03 L 232.10 217.21 L 232.10 218.28 L 235.30 221.47 L 235.30 222.54 L 239.56 227.86 L 244.88 238.51 L 244.88 240.63 L 245.94 241.70 L 247.01 247.02 L 249.14 251.28 L 249.14 255.54 L 250.20 256.61 L 250.20 261.93 L 251.27 262.99 L 251.27 272.58 L 252.33 273.64 L 252.33 286.42 L 251.27 287.48 L 251.27 298.13 L 250.20 299.19 L 250.20 304.52 L 249.14 305.58 L 248.07 315.16 L 247.01 316.23 L 247.01 318.36 L 244.88 322.62 L 243.81 327.94 L 241.68 331.13 L 241.68 333.26 L 238.49 339.65 L 236.36 341.78 L 234.23 347.10 L 229.97 352.43 L 227.84 356.69 L 211.34 374.25 L 210.28 374.25 L 206.02 378.51 L 201.76 380.64 L 198.56 383.84 L 195.37 384.90 L 193.24 387.03 L 180.46 393.42 L 178.34 393.42 L 175.14 395.55 L 173.01 395.55 L 168.75 397.68 L 165.56 397.68 L 161.30 399.81 L 158.11 399.81 L 157.04 400.87 L 152.78 400.87 L 151.72 401.94 L 146.39 401.94 L 145.33 403.00 L 138.41 402.47 L 138.41 339.65 L 141.07 339.12 L 142.14 338.05 L 144.27 338.05 L 145.33 336.99 L 147.46 336.99 L 151.72 334.86 L 153.85 332.73 L 154.91 332.73 L 157.04 330.60 L 158.11 330.60 L 167.16 322.62 L 167.16 321.55 L 172.48 315.16 L 176.74 306.65 L 176.74 304.52 L 177.80 303.45 L 177.80 300.26 L 178.87 299.19 L 178.87 296.00 L 179.93 294.93 L 179.93 287.48 L 181.00 286.42 L 181.00 273.64 L 179.93 272.58 L 179.93 265.12 L 178.87 264.06 L 178.87 259.80 L 177.80 258.73 L 177.80 256.61 L 176.74 255.54 L 176.74 253.41 L 175.67 251.28 L 173.54 247.02 L 170.35 243.83 L 170.35 242.76 L 163.43 235.84 L 162.37 235.84 L 160.24 233.71 L 159.17 233.71 L 157.04 231.58 L 152.78 229.46 L 150.65 229.46 L 149.59 228.39 L 144.27 227.33 L 143.20 226.26 L 140.01 226.26 L 138.94 225.20 L 132.55 225.20 L 131.49 224.13 L 111.26 224.13 L 110.20 223.07 L 102.21 222.54 L 102.21 170.37 L 102.74 169.83 L 126.17 169.83 L 127.23 168.77 L 133.62 168.77 L 134.68 167.70 L 137.88 167.70 L 138.94 166.64 L 141.07 166.64 L 142.14 165.57 L 144.27 165.57 L 147.46 163.44 L 149.59 163.44 L 151.72 162.38 L 157.04 158.12 L 158.11 158.12 L 166.09 150.14 L 166.09 149.07 L 169.29 145.88 L 171.42 141.62 L 171.42 139.49 L 172.48 138.42 L 172.48 135.23 L 173.54 134.17 L 173.54 128.84 L 174.61 127.78 L 174.61 113.94 L 173.54 112.87 L 173.54 107.55 L 172.48 106.48 L 172.48 103.29 L 170.35 100.10 L 170.35 97.97 L 168.22 93.71 L 166.09 91.58 L 166.09 90.51 L 155.98 80.40 L 149.59 77.20 L 147.46 75.08 L 145.33 75.08 L 142.14 72.95 L 138.41 72.41 L 138.41 8.53 L 138.94 8.00 Z M 0.53 265.65 L 64.41 265.65 L 64.95 266.19 L 64.95 269.38 L 66.01 270.45 L 66.01 278.96 L 67.08 280.03 L 67.08 285.35 L 68.14 286.42 L 68.14 290.68 L 70.27 294.93 L 70.27 298.13 L 71.33 299.19 L 71.33 301.32 L 78.79 316.23 L 85.71 324.21 L 96.35 333.80 L 102.74 336.99 L 104.87 336.99 L 109.13 339.12 L 112.86 339.65 L 112.86 402.47 L 112.32 403.00 L 105.94 403.00 L 104.87 401.94 L 98.48 401.94 L 97.42 400.87 L 94.23 400.87 L 93.16 399.81 L 88.90 399.81 L 84.64 397.68 L 81.45 397.68 L 80.38 396.61 L 78.25 396.61 L 69.74 392.35 L 67.61 392.35 L 65.48 390.22 L 55.90 385.96 L 45.25 377.45 L 44.18 377.45 L 29.81 363.07 L 29.81 362.01 L 23.42 354.56 L 20.23 348.17 L 18.10 346.04 L 12.78 335.39 L 12.78 333.26 L 9.58 327.94 L 8.52 322.62 L 6.39 318.36 L 5.32 310.90 L 4.26 309.84 L 4.26 306.65 L 3.19 305.58 L 3.19 300.26 L 2.13 299.19 L 2.13 292.80 L 1.06 291.74 L 1.06 278.96 L 0.00 277.90 L 0.00 266.19 L 0.53 265.65 Z" />
  </g>
</svg>