<svg xmlns="http://www.w3.org/2000/svg"
     viewBox="0 0 276.00 413.00"
     width="276.00" height="413.00">
  <!-- Nikon Isolated Glyph: 6 (Baseline Aligned at Y=403.00px) -->
  <g id="glyph-6-aligned" fill="#231f20" fill-rule="evenodd">
    <path d="M 120.50 10.00 L 127.00 10.50 L 127.00 84.50 L 123.50 85.00 L 119.50 87.00 L 117.50 87.00 L 103.50 95.00 L 92.00 106.50 L 92.00 107.50 L 89.00 110.50 L 88.00 113.50 L 86.00 115.50 L 83.00 121.50 L 83.00 123.50 L 81.00 126.50 L 81.00 128.50 L 80.00 129.50 L 80.00 131.50 L 78.00 135.50 L 78.00 139.50 L 77.00 140.50 L 77.00 144.50 L 76.00 145.50 L 76.00 153.50 L 76.50 154.00 L 86.50 145.00 L 87.50 145.00 L 95.50 139.00 L 107.50 133.00 L 109.50 133.00 L 112.50 131.00 L 114.50 131.00 L 115.50 130.00 L 117.50 130.00 L 121.50 128.00 L 129.50 127.00 L 130.50 126.00 L 137.50 126.00 L 138.50 125.00 L 156.50 125.00 L 157.50 126.00 L 164.50 126.00 L 165.50 127.00 L 169.50 127.00 L 170.50 128.00 L 173.50 128.00 L 174.50 129.00 L 177.50 129.00 L 178.50 130.00 L 186.50 132.00 L 208.50 143.00 L 210.50 143.00 L 212.50 145.00 L 219.50 149.00 L 222.50 152.00 L 223.50 152.00 L 227.50 156.00 L 228.50 156.00 L 243.00 170.50 L 243.00 171.50 L 247.00 175.50 L 247.00 176.50 L 255.00 187.50 L 257.00 192.50 L 259.00 194.50 L 261.00 198.50 L 261.00 201.50 L 264.00 206.50 L 264.00 208.50 L 266.00 211.50 L 266.00 213.50 L 267.00 214.50 L 267.00 216.50 L 269.00 220.50 L 269.00 223.50 L 271.00 227.50 L 272.00 235.50 L 273.00 236.50 L 274.00 248.50 L 275.00 249.50 L 275.00 280.50 L 274.00 281.50 L 274.00 287.50 L 273.00 288.50 L 273.00 292.50 L 272.00 293.50 L 271.00 301.50 L 270.00 302.50 L 269.00 308.50 L 266.00 314.50 L 265.00 319.50 L 257.00 335.50 L 255.00 337.50 L 254.00 340.50 L 252.00 342.50 L 248.00 349.50 L 239.00 359.50 L 239.00 360.50 L 229.50 370.00 L 228.50 370.00 L 222.50 376.00 L 221.50 376.00 L 218.50 379.00 L 217.50 379.00 L 212.50 383.00 L 184.50 397.00 L 182.50 397.00 L 178.50 399.00 L 175.50 399.00 L 171.50 401.00 L 168.50 401.00 L 167.50 402.00 L 162.50 402.00 L 161.50 403.00 L 156.50 403.00 L 155.50 404.00 L 152.00 403.50 L 152.00 329.50 L 155.50 329.00 L 156.50 328.00 L 158.50 328.00 L 162.50 326.00 L 164.50 326.00 L 170.50 323.00 L 172.50 321.00 L 176.50 319.00 L 179.50 316.00 L 180.50 316.00 L 189.00 307.50 L 189.00 306.50 L 194.00 300.50 L 196.00 295.50 L 198.00 293.50 L 198.00 291.50 L 200.00 288.50 L 200.00 286.50 L 202.00 282.50 L 202.00 279.50 L 203.00 278.50 L 203.00 273.50 L 204.00 272.50 L 204.00 256.50 L 203.00 255.50 L 203.00 250.50 L 202.00 249.50 L 202.00 246.50 L 201.00 245.50 L 199.00 237.50 L 196.00 231.50 L 194.00 229.50 L 193.00 226.50 L 190.00 223.50 L 190.00 222.50 L 178.50 211.00 L 177.50 211.00 L 174.50 208.00 L 162.50 202.00 L 160.50 202.00 L 156.50 200.00 L 152.50 200.00 L 151.50 198.00 L 130.50 198.00 L 129.50 200.00 L 122.50 201.00 L 119.50 203.00 L 117.50 203.00 L 111.50 206.00 L 109.50 208.00 L 106.50 209.00 L 102.50 213.00 L 101.50 213.00 L 91.00 224.50 L 91.00 225.50 L 87.00 230.50 L 84.00 236.50 L 84.00 238.50 L 82.00 241.50 L 81.00 247.50 L 80.00 248.50 L 80.00 252.50 L 79.00 253.50 L 79.00 263.50 L 78.00 264.50 L 79.00 265.50 L 79.00 276.50 L 80.00 277.50 L 80.00 280.50 L 81.00 281.50 L 81.00 284.50 L 82.00 285.50 L 83.00 290.50 L 88.00 300.50 L 93.00 306.50 L 93.00 307.50 L 103.50 318.00 L 104.50 318.00 L 109.50 322.00 L 119.50 327.00 L 121.50 327.00 L 127.00 329.50 L 126.50 404.00 L 125.50 403.00 L 119.50 403.00 L 118.50 402.00 L 114.50 402.00 L 113.50 401.00 L 110.50 401.00 L 109.50 400.00 L 106.50 400.00 L 105.50 399.00 L 97.50 397.00 L 73.50 385.00 L 71.50 383.00 L 67.50 381.00 L 64.50 378.00 L 63.50 378.00 L 59.50 374.00 L 58.50 374.00 L 42.00 357.50 L 42.00 356.50 L 35.00 348.50 L 35.00 347.50 L 29.00 339.50 L 27.00 334.50 L 25.00 332.50 L 20.00 322.50 L 20.00 320.50 L 16.00 312.50 L 16.00 310.50 L 15.00 309.50 L 15.00 307.50 L 14.00 306.50 L 14.00 304.50 L 13.00 303.50 L 13.00 301.50 L 11.00 297.50 L 11.00 294.50 L 10.00 293.50 L 10.00 290.50 L 9.00 289.50 L 9.00 286.50 L 8.00 285.50 L 8.00 282.50 L 7.00 281.50 L 7.00 277.50 L 6.00 276.50 L 5.00 267.50 L 4.00 266.50 L 4.00 260.50 L 3.00 259.50 L 3.00 253.50 L 2.00 252.50 L 2.00 244.50 L 1.00 243.50 L 1.00 233.50 L 0.00 232.50 L 0.00 178.50 L 1.00 177.50 L 1.00 166.50 L 2.00 165.50 L 2.00 158.50 L 3.00 157.50 L 3.00 150.50 L 4.00 149.50 L 4.00 144.50 L 5.00 143.50 L 5.00 139.50 L 6.00 138.50 L 7.00 129.50 L 8.00 128.50 L 8.00 125.50 L 9.00 124.50 L 9.00 121.50 L 10.00 120.50 L 10.00 117.50 L 12.00 113.50 L 12.00 110.50 L 13.00 109.50 L 14.00 104.50 L 16.00 101.50 L 16.00 99.50 L 19.00 93.50 L 19.00 91.50 L 28.00 73.50 L 30.00 71.50 L 31.00 68.50 L 33.00 66.50 L 35.00 62.50 L 42.00 54.50 L 42.00 53.50 L 58.50 37.00 L 59.50 37.00 L 66.50 31.00 L 67.50 31.00 L 72.50 27.00 L 88.50 19.00 L 90.50 19.00 L 93.50 17.00 L 95.50 17.00 L 96.50 16.00 L 98.50 16.00 L 102.50 14.00 L 109.50 13.00 L 110.50 12.00 L 119.50 11.00 L 120.50 10.00 Z M 152.50 10.00 L 155.50 10.00 L 156.50 11.00 L 161.50 11.00 L 162.50 12.00 L 166.50 12.00 L 167.50 13.00 L 170.50 13.00 L 171.50 14.00 L 177.50 15.00 L 178.50 16.00 L 183.50 17.00 L 186.50 19.00 L 188.50 19.00 L 204.50 27.00 L 209.50 31.00 L 211.50 31.00 L 217.50 36.00 L 218.50 36.00 L 222.50 40.00 L 223.50 40.00 L 237.00 53.50 L 237.00 54.50 L 244.00 62.50 L 244.00 63.50 L 250.00 71.50 L 251.00 74.50 L 253.00 76.50 L 260.00 90.50 L 260.00 92.50 L 262.00 95.50 L 263.00 100.50 L 265.00 103.50 L 265.00 106.50 L 267.00 110.50 L 268.00 117.50 L 192.50 118.00 L 190.00 112.50 L 188.00 110.50 L 186.00 106.50 L 174.50 95.00 L 173.50 95.00 L 170.50 92.00 L 167.50 91.00 L 165.50 89.00 L 161.50 88.00 L 156.50 85.00 L 152.50 84.00 L 152.50 10.00 Z" />
  </g>
</svg>