<svg xmlns="http://www.w3.org/2000/svg"
     viewBox="0 0 166.59 211.64"
     width="166.59" height="211.64">
  <!-- Nikon Z-Series Isolated Glyph: II (Tight Box: 166.6x211.6px, Source: Z7II.png) -->
  <g id="z-glyph-II" fill="#231f20" fill-rule="evenodd">
    <path d="M 0.52 0.00 L 166.07 0.00 L 166.59 0.52 L 166.07 7.33 L 159.78 7.33 L 158.73 8.38 L 154.54 8.38 L 153.49 9.43 L 150.35 9.43 L 147.21 11.53 L 145.11 11.53 L 140.40 16.24 L 138.30 20.43 L 138.30 23.57 L 137.25 24.62 L 137.25 30.91 L 136.21 31.96 L 136.21 179.69 L 137.25 180.74 L 137.25 187.02 L 138.30 188.07 L 138.30 191.21 L 140.40 195.40 L 144.06 199.07 L 148.26 201.17 L 150.35 201.17 L 151.40 202.21 L 154.54 202.21 L 155.59 203.26 L 160.83 203.26 L 161.88 204.31 L 166.07 204.31 L 166.59 204.83 L 166.07 211.64 L 0.52 211.64 L 0.00 211.12 L 0.52 204.31 L 12.05 203.26 L 16.24 201.17 L 21.48 200.12 L 23.57 198.02 L 24.62 198.02 L 28.29 192.26 L 28.29 190.17 L 29.34 189.12 L 29.34 184.93 L 30.38 183.88 L 30.38 27.77 L 29.34 26.72 L 28.29 19.38 L 24.62 13.62 L 23.57 13.62 L 21.48 11.53 L 17.29 9.43 L 14.14 9.43 L 13.10 8.38 L 7.86 8.38 L 6.81 7.33 L 0.52 7.33 L 0.00 6.81 L 0.52 0.00 Z M 80.15 8.38 L 79.10 9.43 L 75.96 9.43 L 71.77 12.57 L 70.72 12.57 L 66.01 18.34 L 64.96 20.43 L 64.96 22.53 L 63.91 23.57 L 63.91 187.02 L 64.96 188.07 L 64.96 191.21 L 66.01 193.31 L 70.72 199.07 L 77.01 202.21 L 80.15 202.21 L 81.20 203.26 L 85.39 203.26 L 86.44 202.21 L 91.68 201.17 L 93.77 199.07 L 94.82 199.07 L 99.54 193.31 L 100.58 191.21 L 100.58 189.12 L 101.63 188.07 L 101.63 23.57 L 100.58 22.53 L 100.58 20.43 L 98.49 16.24 L 94.82 12.57 L 93.77 12.57 L 89.58 9.43 L 86.44 9.43 L 85.39 8.38 L 80.15 8.38 Z" />
  </g>
</svg>